<?xml version="1.0" encoding="utf-8"?>
<!-- Generator: Adobe Illustrator 22.1.0, SVG Export Plug-In . SVG Version: 6.00 Build 0)  -->
<svg version="1.1" id="Ebene_1" xmlns="http://www.w3.org/2000/svg" xmlns:xlink="http://www.w3.org/1999/xlink" x="0px" y="0px"
	 viewBox="0 0 426.5 427.4" style="enable-background:new 0 0 426.5 427.4;" xml:space="preserve">
<style type="text/css">
	.st0{fill:#FF3366;}
	.st1{fill:#FFFFFF;}
	.st2{fill:#D4FBFF;}
	.st3{fill:#6DC9F7;}
	.st4{fill:#3A2C60;}
</style>
<path class="st0" d="M24,271.5h378.5c11,0,20,9,20,20v111.9c0,11-9,20-20,20H24c-11,0-20-9-20-20V291.5C4,280.4,13,271.5,24,271.5z"
	/>
<path class="st1" d="M97.5,335.5c1.3,1.5,2,3.4,2,5.4c0,2-0.7,4-2,5.5c-1.4,1.6-3.4,2.4-5.5,2.1l-17.4-0.9l9.6,14.4
	c0.8,1.2,1.2,2.5,1.2,3.9c0,2.1-1,4-2.6,5.2c-1.6,1.4-3.6,2.2-5.8,2.2c-2.6,0.1-5-1.4-6-3.7l-7.8-15.5l-7.8,15.5
	c-1.1,2.4-3.4,3.9-6,3.9c-2.1,0-4.2-0.8-5.8-2.2c-2.8-2.2-3.4-6.2-1.3-9.2l9.6-14.6l-17.4,0.9c-2.1,0.2-4.1-0.5-5.5-2
	c-1.3-1.5-2-3.4-2-5.4c0-2,0.7-4,2-5.5c1.4-1.6,3.4-2.4,5.5-2.1l17.4,0.9l-9.6-14.4c-0.8-1.1-1.2-2.5-1.2-3.9c0-2,1-3.9,2.6-5.2
	c1.6-1.4,3.7-2.1,5.8-2.1c2.6-0.1,5,1.4,6,3.7l7.8,15.5l7.8-15.5c1.1-2.5,3.5-4,6.2-3.9c2.1,0,4.1,0.8,5.6,2.2
	c1.6,1.3,2.6,3.2,2.6,5.2c0,1.4-0.4,2.8-1.2,3.9l-9.6,14.4l17.4-0.9C94.1,333.2,96.1,334,97.5,335.5z"/>
<path class="st1" d="M182.7,335.5c1.3,1.5,2,3.4,2,5.4c0,2-0.7,4-2,5.5c-1.4,1.6-3.4,2.4-5.5,2.1l-17.4-0.9l9.6,14.4
	c0.8,1.2,1.2,2.5,1.2,3.9c0,2.1-1,4-2.6,5.2c-1.6,1.4-3.6,2.2-5.8,2.2c-2.6,0.1-5-1.4-6-3.7l-7.8-15.5l-7.8,15.5
	c-1.1,2.4-3.4,3.9-6,3.9c-2.1,0-4.2-0.8-5.8-2.2c-2.8-2.2-3.4-6.2-1.3-9.2l9.6-14.6l-17.4,0.9c-2.1,0.2-4.1-0.5-5.5-2
	c-1.3-1.5-2-3.4-2-5.4c0-2,0.7-4,2-5.5c1.4-1.6,3.4-2.4,5.5-2.1l17.4,0.9l-9.6-14.4c-0.8-1.1-1.2-2.5-1.2-3.9c0-2,1-3.9,2.6-5.2
	c1.6-1.4,3.7-2.1,5.8-2.1c2.6-0.1,5,1.4,6,3.7l7.8,15.5l7.8-15.5c1.1-2.5,3.5-4,6.2-3.9c2.1,0,4.1,0.8,5.6,2.2
	c1.6,1.3,2.6,3.2,2.6,5.2c0,1.4-0.4,2.8-1.2,3.9l-9.6,14.4l17.4-0.9C179.3,333.2,181.3,334,182.7,335.5z"/>
<path class="st1" d="M342.3,393.7c-1.8-1.6-2.7-4-2.6-6.4c-0.1-2.4,0.8-4.8,2.6-6.5c2.2-1.8,4.9-2.6,7.7-2.4h36.6
	c2.8-0.2,5.6,0.6,7.7,2.4c1.8,1.7,2.7,4.1,2.6,6.5c0.1,2.4-0.8,4.8-2.6,6.4c-2.2,1.7-5,2.5-7.7,2.3H350
	C347.2,396.3,344.5,395.4,342.3,393.7z"/>
<path class="st1" d="M268.6,393.7c-1.8-1.6-2.7-4-2.6-6.4c-0.1-2.4,0.8-4.8,2.6-6.5c2.2-1.8,4.9-2.6,7.7-2.4h36.6
	c2.8-0.2,5.6,0.6,7.7,2.4c1.8,1.7,2.7,4.1,2.6,6.5c0.1,2.4-0.8,4.8-2.6,6.4c-2.2,1.7-5,2.5-7.7,2.3h-36.6
	C273.5,396.3,270.8,395.4,268.6,393.7z"/>
<path class="st1" d="M194.8,393.7c-1.8-1.6-2.7-4-2.6-6.4c-0.1-2.4,0.8-4.8,2.6-6.5c2.2-1.8,4.9-2.6,7.7-2.4h36.6
	c2.8-0.2,5.6,0.6,7.7,2.4c1.8,1.7,2.7,4.1,2.6,6.5c0.1,2.4-0.8,4.8-2.6,6.4c-2.2,1.7-5,2.5-7.7,2.3h-36.6
	C199.8,396.3,197,395.4,194.8,393.7z"/>
<path class="st2" d="M267,113.5V79.2c-0.3-29.7-24.5-53.5-54.2-53.3c-29.3,0.3-53,24-53.3,53.3v34.2H138V79.2
	C138,37.7,171.7,4,213.2,4s75.2,33.7,75.3,75.2c0,0,0,0,0,0v34.2L267,113.5z"/>
<path class="st3" d="M313.9,113.5H112.6c-8.8,0-16,7.2-16,16v142h233.3v-142C329.9,120.6,322.7,113.5,313.9,113.5z"/>
<path class="st1" d="M313.9,113.5H112.6c-8.8,0-16,7.2-16,16v12c0-8.8,7.2-16,16-16h201.3c8.8,0,16,7.2,16,16v-12
	C329.9,120.6,322.7,113.5,313.9,113.5z"/>
<path class="st4" d="M402.5,427.4c13.2,0,24-10.8,24-24V291.5c0-13.2-10.8-24-24-24h-68.6v-138c0-11-9-20-20-20h-21.4V79.2
	C292.5,35.5,257,0,213.2,0S134,35.5,134,79.2v30.2h-21.4c-11,0-20,9-20,20v138H24c-13.2,0-24,10.8-24,24v111.9c0,13.2,10.8,24,24,24
	L402.5,427.4z M24,419.4c-8.8,0-16-7.2-16-16V291.5c0-8.8,7.2-16,16-16h378.5c8.8,0,16,7.2,16,16v111.9c0,8.8-7.2,16-16,16L24,419.4
	z M142,79.2c0.3-39.3,32.4-71,71.8-70.7c38.9,0.3,70.4,31.8,70.7,70.7v30.2H271V79.2c0-31.9-25.9-57.7-57.7-57.7
	s-57.7,25.9-57.7,57.7v30.2H142V79.2z M163.5,109.5V79.2c0-27.5,22.3-49.7,49.7-49.7S263,51.8,263,79.2v30.2H163.5z M100.6,267.5
	v-138c0-6.6,5.4-12,12-12h201.3c6.6,0,12,5.4,12,12v138H100.6z"/>
<path class="st4" d="M213.3,157.2c-13.3,0-24,10.8-24,24c0,9.2,5.3,17.6,13.6,21.6v28.5c0,5.7,4.7,10.4,10.4,10.4
	c5.7,0,10.4-4.7,10.4-10.4v-28.5c11.9-5.8,17-20.1,11.2-32C230.9,162.5,222.5,157.2,213.3,157.2L213.3,157.2z"/>
</svg>
